<svg xmlns="http://www.w3.org/2000/svg" width="512" height="512" viewBox="0 0 24 24" fill="none" stroke="#1e3a8a" stroke-width="1.5" stroke-linecap="round" stroke-linejoin="round"><metadata><rdf:RDF xmlns:rdf="http://www.w3.org/1999/02/22-rdf-syntax-ns#" xmlns:dc="http://purl.org/dc/elements/1.1/"><rdf:Description><dc:creator>RealFaviconGenerator</dc:creator><dc:source>https://realfavicongenerator.net</dc:source></rdf:Description></rdf:RDF></metadata><circle cx="12" cy="12" r="11" fill="#ffffff" stroke="#1e3a8a" stroke-width="0.5"></circle><path d="M14 2H6a2 2 0 0 0-2 2v16a2 2 0 0 0 2 2h12a2 2 0 0 0 2-2V8z" fill="#f8fafc"></path><polyline points="14 2 14 8 20 8"></polyline><line x1="16" y1="13" x2="8" y2="13"></line><line x1="16" y1="17" x2="8" y2="17"></line><line x1="10" y1="9" x2="8" y2="9"></line><path d="M18 13v-2.5a.5.5 0 0 0-.5-.5H15a.5.5 0 0 0-.5.5V15" stroke-width="1.2"></path><circle cx="13.5" cy="15" r="1.5" fill="#1e3a8a"></circle></svg>