<svg xmlns="http://www.w3.org/2000/svg" xmlns:xlink="http://www.w3.org/1999/xlink" width="512" height="512" version="1.1" viewBox="0 0 512 512"><title>Icono OUM - División Lago</title><desc>Ancla naval minimalista sobre escudo circular.</desc><circle cx="256" cy="256" r="240" fill="#1e3a8a" stroke="#fff" stroke-width="12"/><g fill="#bfdbfe" transform="translate(112, 96) scale(1.1)"><circle cx="128" cy="32" r="24" fill="none" stroke="#bfdbfe" stroke-width="8"/><rect width="24" height="260" x="116" y="56" rx="12"/><rect width="160" height="20" x="48" y="90" rx="10"/><path fill="#bfdbfe" d="M 128,340 C 60,340 20,280 10,220 L 35,215 C 45,260 70,300 128,300 C 186,300 211,260 221,215 L 246,220 C 236,280 196,340 128,340 Z"/><path fill="#bfdbfe" d="M 128,370 L 108,340 L 148,340 Z"/></g><circle cx="256" cy="256" r="240" fill="url(#gradienteBrillo)" opacity=".1"/><defs><linearGradient id="gradienteBrillo" x1="0%" x2="100%" y1="0%" y2="100%"><stop offset="0%" style="stop-color:#fff;stop-opacity:1"/><stop offset="100%" style="stop-color:#000;stop-opacity:1"/></linearGradient></defs></svg>