<svg xmlns="http://www.w3.org/2000/svg" width="512" height="512" fill="none" viewBox="0 0 512 512"><circle cx="256" cy="256" r="240" stroke="#E30613" stroke-dasharray="20 15" stroke-width="8" opacity=".6"/><path stroke="#004671" stroke-linecap="round" stroke-linejoin="round" stroke-width="6" d="M40 256H100L120 200L160 312L180 256H220"/><g transform="translate(180, 120) scale(1.2)"><rect width="60" height="25" x="10" y="25" fill="#004671" rx="10"/><rect width="15" height="18" x="72" y="32" fill="#004671" rx="2"/><circle cx="20" cy="55" r="6" fill="#333"/><circle cx="55" cy="55" r="6" fill="#333"/><path stroke="#fff" stroke-width="2" d="M35 30Q40 20 45 30"/></g><g transform="translate(100, 260) scale(1.1)"><rect width="50" height="15" x="10" y="40" fill="#555"/><rect width="15" height="20" x="55" y="35" fill="#555" rx="2"/><line x1="15" x2="60" y1="40" y2="10" stroke="#E30613" stroke-width="5"/><rect width="15" height="10" x="55" y="5" fill="#E30613"/><circle cx="20" cy="60" r="6" fill="#333"/><circle cx="50" cy="60" r="6" fill="#333"/></g><g transform="translate(320, 260) scale(1.1)"><rect width="50" height="30" x="10" y="25" fill="#004671" rx="2"/><rect width="15" height="20" x="62" y="35" fill="#004671" rx="2"/><circle cx="20" cy="60" r="6" fill="#333"/><circle cx="50" cy="60" r="6" fill="#333"/><line x1="15" x2="45" y1="35" y2="35" stroke="#fff" stroke-width="2" opacity=".5"/></g><circle cx="256" cy="256" r="40" fill="#fff" stroke="#004671" stroke-width="2"/><path fill="#F9A825" d="M256 230C256 230 236 250 236 265C236 276.046 244.954 285 256 285C267.046 285 276 276.046 276 265C276 250 256 230 256 230Z"/></svg>