<svg width="512" height="512" viewBox="0 0 512 512" fill="none" xmlns="http://www.w3.org/2000/svg">
  <circle cx="256" cy="256" r="240" stroke="#E30613" stroke-width="8" stroke-dasharray="20 15" opacity="0.6" />
  <path d="M40 256H100L120 200L160 312L180 256H220" stroke="#004671" stroke-width="6" stroke-linecap="round" stroke-linejoin="round"/>
  
  <g transform="translate(180, 120) scale(1.2)">
    <rect x="10" y="25" width="60" height="25" rx="10" fill="#004671"/>
    <rect x="72" y="32" width="15" height="18" rx="2" fill="#004671"/>
    <circle cx="20" cy="55" r="6" fill="#333"/>
    <circle cx="55" cy="55" r="6" fill="#333"/>
    <path d="M35 30Q40 20 45 30" stroke="white" stroke-width="2"/>
  </g>

  <g transform="translate(100, 260) scale(1.1)">
    <rect x="10" y="40" width="50" height="15" fill="#555"/>
    <rect x="55" y="35" width="15" height="20" rx="2" fill="#555"/>
    <line x1="15" y1="40" x2="60" y2="10" stroke="#E30613" stroke-width="5"/>
    <rect x="55" y="5" width="15" height="10" fill="#E30613"/>
    <circle cx="20" cy="60" r="6" fill="#333"/>
    <circle cx="50" cy="60" r="6" fill="#333"/>
  </g>

  <g transform="translate(320, 260) scale(1.1)">
    <rect x="10" y="25" width="50" height="30" rx="2" fill="#004671"/>
    <rect x="62" y="35" width="15" height="20" rx="2" fill="#004671"/>
    <circle cx="20" cy="60" r="6" fill="#333"/>
    <circle cx="50" cy="60" r="6" fill="#333"/>
    <line x1="15" y1="35" x2="45" y2="35" stroke="white" stroke-width="2" opacity="0.5"/>
  </g>

  <circle cx="256" cy="256" r="40" fill="white" stroke="#004671" stroke-width="2"/>
  <path d="M256 230C256 230 236 250 236 265C236 276.046 244.954 285 256 285C267.046 285 276 276.046 276 265C276 250 256 230 256 230Z" fill="#F9A825"/>
</svg>
